<svg width="1440" height="1024" viewBox="0 0 1440 1024" fill="none" xmlns="http://www.w3.org/2000/svg">
<path fill-rule="evenodd" clip-rule="evenodd" d="M1180.53 2.18574C1227.81 12.1144 1236.12 72.6153 1277.36 95.6584C1324.46 121.976 1404.31 98.6369 1431.16 142.244C1456.81 183.887 1421.73 239.088 1388.51 276.155C1360.33 307.595 1302.06 297.352 1268.28 323.971C1228.16 355.59 1231.64 426.265 1180.53 440.063C1131.43 453.32 1077.37 419.388 1043.77 384.588C1013.05 352.778 1024.47 305.256 1011.33 264.831C998.784 226.231 962.678 193.416 968.664 153.564C975.102 110.704 1006.43 73.5944 1044.1 46.679C1082.92 18.9436 1132.24 -7.95438 1180.53 2.18574Z" fill="#9A9A9A" fill-opacity="0.1"/>
<path fill-rule="evenodd" clip-rule="evenodd" d="M837.762 364.529C888.033 357.518 953.077 334.711 981.997 376.494C1010.86 418.196 953.185 466.063 942.349 515.633C931.259 566.361 963.228 633.905 919.596 661.947C875.263 690.437 818.606 652.226 774.369 623.587C738.077 600.092 711.522 564.933 703.921 522.322C696.763 482.198 710.054 441.806 736.4 410.745C761.69 380.93 799.079 369.924 837.762 364.529Z" fill="#9A9A9A" fill-opacity="0.1"/>
<path d="M652.888 301.544C637.576 291.405 624.213 277.473 617.142 266.057C615.982 263.961 618.321 261.416 620.306 262.683C632.871 270.707 653.686 284.22 668.201 290.576C668.998 290.986 670.159 290.128 670.159 289.299C669.769 282.972 668.998 277.892 667.82 274.928C663.504 260.587 577.878 198.494 501.708 200.181C456.941 201.448 407.832 175.691 372.113 166.409C363.065 163.865 347.744 160.901 334.798 160.491C277.847 160.491 250.759 174.004 223.262 181.189C158.07 198.494 96.423 200.62 -41.4038 151.62C-43.7609 150.791 -46.8976 152.039 -47.6954 154.574C-69.698 213.274 -20.199 300.277 62.2632 281.704C63.4508 281.256 64.2214 282.972 63.0338 283.8C48.9002 296.045 18.684 299.857 -0.181807 293.94C-3.69932 292.672 -7.63382 292.263 -11.5684 292.672C-217.742 378.398 -247.577 603.079 -226.373 658.816C-213.427 608.578 -192.992 581.553 -174.544 561.684C-249.943 720.47 -207.516 879.686 -136.839 944.294C-147.845 907.15 -148.226 868.299 -140.774 835.775C-118.78 980.191 -40.2433 1077.75 107.801 1093.81C76.016 1078.61 53.6326 1043.98 46.1533 1020.74C108.988 1094.22 301.418 1116.6 356.792 1050.72C333.61 1049.45 304.963 1036.8 288.844 1026.65C244.467 997.525 207.179 942.608 205.203 866.583C204.015 819.718 222.491 766.516 266.46 723.844C175.748 742.445 39.082 660.922 49.3173 503.841C59.1355 684.574 212.682 730.619 308.099 697.677C329.295 687.947 352.476 682.029 376.809 682.029C417.65 682.029 454.965 697.257 484.41 722.605C485.208 723.434 485.979 723.844 486.777 724.702C500.52 736.527 518.18 743.713 537.427 743.713C553.156 743.713 567.29 739.043 579.855 731.029C603.417 715.42 619.118 687.528 619.118 655.862C619.118 647.848 618.321 640.663 616.752 633.887V633.058C614.005 622.09 609.3 612.78 603.417 603.908C598.304 576.054 593.598 559.997 579.447 538.052C578.286 536.336 576.31 537.194 575.92 539.29C575.539 548.61 574.742 557.034 573.173 564.638C571.995 571.404 570.037 582.791 568.06 591.663C564.534 605.624 577.489 605.624 583.762 606.453C582.194 611.093 564.534 610.265 563.745 606.862V606.453C563.745 604.766 563.355 601.802 562.974 598.019C560.989 577.322 554.724 552.812 537.037 536.784C535.478 535.098 532.722 537.194 532.722 540.567C530.356 566.325 524.472 595.065 517.41 611.093V611.951C494.229 607.311 464.774 595.065 433.37 591.253C379.175 584.916 351.679 578.15 348.932 545.208C348.932 543.94 350.5 543.521 350.908 544.798C358.75 561.265 366.229 576.054 410.987 583.649C412.555 584.068 413.326 581.553 411.766 580.695C377.607 559.578 379.175 544.379 381.133 516.935C381.133 515.219 381.541 513.981 381.922 512.713C389.764 468.354 422.763 438.365 446.325 423.166C447.513 422.308 447.123 420.212 445.527 420.212C412.555 424.443 380.363 440.052 357.181 478.493C359.548 470.899 363.065 462.855 367.788 455.251C407.442 389.814 482.842 403.326 537.037 413.466C540.174 430.771 539.403 455.7 535.859 478.493C535.478 481.457 537.835 483.992 540.174 483.134C570.036 470.479 583.372 442.597 590.054 421.07C595.937 422.308 607.324 424.024 618.738 423.585C619.119 423.585 619.119 424.024 618.738 424.024C608.892 425.272 599.872 425.711 598.693 425.272C598.304 425.272 597.923 426.13 598.304 426.539C601.06 437.956 600.67 457.386 598.304 474.272C597.923 476.368 599.491 478.084 601.06 477.226C630.505 464.123 635.618 428.226 638.365 418.945C639.526 418.526 640.323 417.668 641.121 417.258C641.121 417.258 641.502 417.258 641.502 417.668C641.502 417.258 641.892 417.258 641.892 416.839C643.46 414.714 650.939 403.326 654.457 395.722C654.457 395.722 654.457 395.283 654.838 395.283C654.838 394.874 655.255 394.455 655.255 394.045C656.025 392.358 656.433 391.081 657.204 389.395C663.505 372.928 667.022 356.013 668.998 339.985C671.337 323.928 664.656 309.558 652.888 301.544ZM325.361 236.936C321.843 227.206 321.843 217.505 327.346 209.901C330.864 204.851 323.411 198.933 309.278 204.402C312.795 201.448 317.12 199.762 321.843 198.933C326.158 198.075 330.864 198.494 335.596 199.342C344.616 201.029 353.247 204.402 360.318 210.32C366.61 214.551 372.883 220.05 380.363 224.69C379.946 231.437 377.996 238.203 374.062 245.807C358.36 240.299 344.227 234.83 325.361 236.936ZM378.794 247.484C384.288 243.672 388.993 238.203 392.511 231.018C392.928 231.018 393.698 231.437 394.106 231.437C396.853 232.285 399.609 233.114 402.746 233.972C405.493 234.391 408.63 234.83 411.377 234.83C414.124 234.83 417.26 234.391 420.397 234.391C413.743 238.622 398.014 252.993 378.794 247.484Z" fill="#9A9A9A" fill-opacity="0.1"/>
<path fill-rule="evenodd" clip-rule="evenodd" d="M616.761 828.085C641.026 837.768 642.115 875.931 664.717 889.041C684.014 900.234 710.49 884.716 730.694 894.17C752.179 904.224 781.854 919.724 780.981 943.448C779.93 972.016 731.684 980.297 726.491 1008.41C721.888 1033.33 767.054 1054.56 756.227 1077.47C745.936 1099.24 710.294 1089.22 686.524 1092.98C670.286 1095.55 652.269 1088.29 637.852 1096.19C615.68 1108.35 609.686 1147.16 584.468 1148.95C562.929 1150.47 553.226 1119.92 539.632 1103.13C528.297 1089.13 524.932 1069.33 510.891 1058.05C487.352 1039.14 438.68 1045.72 431.613 1016.34C425.111 989.314 472.171 978.457 485.933 954.31C496.462 935.836 491.446 911.81 501.78 893.226C513.034 872.988 527.969 853.911 548.106 842.502C568.681 830.846 594.801 819.32 616.761 828.085Z" fill="#9A9A9A" fill-opacity="0.1"/>
<path fill-rule="evenodd" clip-rule="evenodd" d="M1238.7 519.821C1309.35 495.439 1396.56 530.989 1447.17 585.97C1495.73 638.717 1487.62 719.917 1488.91 791.602C1489.87 844.622 1468.26 891.763 1453.61 942.726C1438.26 996.092 1442.37 1059.29 1401.2 1096.56C1358.77 1134.98 1295.71 1142.52 1238.7 1137.28C1184.98 1132.33 1145.17 1091.96 1096.58 1068.51C1033.29 1037.97 943.527 1041.73 911.288 979.284C879.251 917.234 905.486 834.444 946.582 777.983C983.602 727.122 1066.69 742.678 1113.83 701.02C1170.17 651.226 1167.63 544.354 1238.7 519.821Z" fill="#9A9A9A" fill-opacity="0.1"/>
</svg>
