<svg width="270" height="270" viewBox="0 0 270 270" fill="none" xmlns="http://www.w3.org/2000/svg">
<path d="M268.629 50.9772C269.619 49.2874 270.058 47.2565 269.835 45.2283C269.619 42.7418 269.29 40.8281 268.851 39.3596C267.861 36.3133 265.555 33.6107 261.057 30.1114C257.654 27.5155 253.587 24.9249 249.199 22.6649C240.968 18.2673 228.233 13.0782 214.953 13.0782H213.093C206.175 13.0782 198.052 10.2585 190.919 7.77975C187.075 6.42847 183.456 5.18915 179.944 4.28046C177.306 3.6087 172.259 2.48132 167.432 2.48132H167.315C153.597 2.48132 145.367 4.96002 138.778 6.87891C137.134 7.32935 135.598 7.8891 134.06 8.23019C126.489 10.1491 120.557 10.938 113.976 10.938C101.241 10.938 86.2023 7.77975 64.9124 0.562408C63.9216 0.221344 62.8219 0 61.7298 0C57.45 0 53.7151 2.59067 52.068 6.64978C48.2266 16.4656 49.7647 28.5336 56.0184 38.1203C56.8951 39.4716 57.8859 40.8281 58.9856 42.07C30.5577 56.0543 15.9548 78.0422 8.71539 94.7369C4.43309 104.553 1.57484 114.921 0.482725 124.965C-0.508033 134.214 0.0367435 142.332 2.02079 147.742C2.67454 149.661 3.99471 151.242 5.63922 152.26C1.79781 183.951 12.5568 212.256 28.7966 227.261C30.4411 228.839 32.6406 229.628 34.9464 229.628C35.8206 229.628 36.5909 229.51 37.3587 229.289C40.7643 235.267 44.7146 240.678 49.2174 245.526C62.3836 259.291 80.0601 267.521 102.011 270H102.995C106.507 270 109.58 267.969 111.118 264.931C121.003 267.748 131.316 268.99 140.539 268.99C183.018 268.99 189.819 244.737 190.81 238.537C184.001 241.016 177.306 240.339 173.688 240.115C169.183 239.777 162.927 237.298 159.308 235.038C153.706 231.541 140.316 220.041 140.646 198.837C141.084 167.145 169.621 159.477 179.389 160.039C188.39 160.487 196.845 163.086 203.76 168.835C203.869 168.947 203.976 169.064 204.092 169.176L204.414 169.514C210.017 174.024 217.043 176.505 224.067 176.505C229.885 176.505 235.589 174.925 240.53 171.766C250.075 165.788 255.893 155.301 255.893 143.8C255.893 140.983 255.571 138.385 255.016 135.794C255.016 135.674 254.91 135.565 254.91 135.336C254.142 132.185 252.819 129.246 250.96 126.207C249.421 118.87 247.663 113.572 243.165 107.031C242.727 106.352 242.066 105.675 241.407 105.113H241.63C242.836 105.113 244.042 104.883 245.248 104.433C255.239 100.265 258.751 90.6778 260.175 85.7179L260.505 85.4887C260.943 84.9263 263.687 81.0885 265.117 78.0423L265.34 77.5918C265.661 76.9201 265.884 76.3525 266.107 75.7901C267.967 70.942 269.29 65.7529 269.944 60.4545C270.167 57.1765 269.728 53.9063 268.629 50.9772Z" fill="white"/>
<path d="M113.977 11.9661C120.641 11.9661 126.648 11.1652 134.271 9.23471L134.876 9.09021C135.479 8.93729 136.075 8.76038 136.664 8.58047C137.261 8.39819 137.845 8.21497 138.438 8.04163L139.036 7.87204L139.044 7.87003L139.051 7.86801C145.613 5.95676 153.737 3.50906 167.315 3.50906V2.48154L166.045 2.48856C153.084 2.63577 145.16 5.01971 138.778 6.87863C137.339 7.2728 135.984 7.75098 134.637 8.0928L134.06 8.23026C126.962 10.0293 121.305 10.8348 115.203 10.9285L113.977 10.9386C101.241 10.9386 86.202 7.7803 64.9121 0.562927C63.9214 0.221893 62.8215 0 61.7295 0V1.02753C62.6947 1.02753 63.6868 1.22473 64.5947 1.53729L64.5996 1.5383L66.581 2.20459C86.8723 8.96539 101.487 11.9661 113.977 11.9661ZM167.432 3.50906V2.48154H167.315V3.50906H167.432ZM213.093 13.0779L212.441 13.0699C205.669 12.9023 197.829 10.181 190.919 7.77972C187.075 6.42841 183.456 5.18939 179.944 4.2807L178.848 4.01077C176.248 3.39252 172.275 2.60406 168.339 2.49457L167.432 2.48154V3.50906C172.133 3.50906 177.085 4.61127 179.704 5.27814C183.17 6.17505 186.751 7.40082 190.595 8.75204L190.599 8.75305L193.308 9.69028C199.739 11.893 206.866 14.1054 213.093 14.1054V13.0779ZM214.953 14.1054V13.0779H213.093V14.1054H214.953ZM254.893 143.801C254.893 154.937 249.261 165.095 240.01 170.889L240.002 170.894C235.228 173.945 229.709 175.477 224.067 175.477C217.287 175.477 210.497 173.087 205.078 168.742L204.808 168.457L204.792 168.441L204.775 168.425C204.673 168.327 204.611 168.255 204.468 168.108L204.431 168.07L204.39 168.036C197.27 162.117 188.593 159.468 179.437 159.013L179.436 159.014C174.335 158.723 164.549 160.558 155.961 166.49C147.311 172.464 139.871 182.601 139.646 198.821L139.641 199.831C139.736 220.899 153.115 232.375 158.789 235.916L159.516 236.353C163.296 238.546 169.204 240.809 173.615 241.14L173.628 241.141L175.119 241.239C178.589 241.465 183.916 241.698 189.483 240.051C188.641 243.602 186.396 249.733 180.551 255.337C173.642 261.959 161.586 267.962 140.539 267.962C131.683 267.962 121.813 266.806 112.305 264.197L111.386 263.94L110.604 263.718L110.231 264.457C108.86 267.166 106.122 268.972 102.994 268.972H102.069C80.3308 266.508 62.8988 258.364 49.9306 244.806C45.4875 240.02 41.5869 234.678 38.2216 228.77L37.832 228.085L37.0888 228.3C36.4068 228.496 35.7269 228.6 34.9463 228.6C32.8598 228.6 30.9152 227.887 29.4795 226.51L29.4726 226.504L29.4648 226.497C13.503 211.748 2.82489 183.795 6.63181 152.387L6.71189 151.724L6.15525 151.38C4.69626 150.477 3.53637 149.081 2.96482 147.403L2.96091 147.391L2.957 147.38C1.05251 142.187 0.4938 134.254 1.47654 125.079L1.58298 124.148C2.69716 114.821 5.33873 105.222 9.23435 96.0708L9.6279 95.1577L9.62888 95.1557L10.3222 93.5903C17.7145 77.2699 32.1352 56.4172 59.417 42.9966L60.6298 42.4006L59.7255 41.3791C58.6673 40.184 57.7067 38.8695 56.8505 37.5499L56.8486 37.5479C50.7607 28.215 49.2927 16.5087 52.9912 7.0452L53.1367 6.70404C54.6963 3.22031 57.9797 1.02768 61.7295 1.02753V0L61.33 0.00802612C57.3512 0.158875 53.8935 2.55533 52.2285 6.27356L52.0683 6.64984C48.2869 16.3123 49.7177 28.1573 55.7285 37.6693L56.0185 38.1199C56.8952 39.4712 57.8856 40.8285 58.9853 42.0704C30.5576 56.0547 15.9551 78.0426 8.71579 94.7373C4.56733 104.246 1.75442 114.273 0.589818 124.023L0.482396 124.965C-0.508349 134.213 0.0364966 142.332 2.02048 147.742C2.67423 149.661 3.99511 151.242 5.63962 152.26C1.79821 183.952 12.557 212.256 28.7968 227.261C30.4413 228.839 32.6406 229.627 34.9463 229.627L35.2695 229.622C35.9068 229.601 36.4928 229.514 37.0703 229.367L37.3584 229.289C40.5511 234.894 44.2232 239.999 48.3798 244.61L49.2177 245.526C62.3839 259.291 80.0606 267.521 102.012 270H102.994L103.322 269.994C106.588 269.876 109.439 268.001 110.97 265.213L111.118 264.931C121.003 267.748 131.316 268.989 140.539 268.99L141.528 268.986C183.124 268.612 189.826 244.688 190.809 238.537C184.001 241.016 177.307 240.339 173.688 240.115C169.183 239.777 162.927 237.298 159.309 235.038L158.761 234.687C152.882 230.813 140.326 219.378 140.645 198.837C141.084 167.145 169.621 159.477 179.39 160.039C188.109 160.473 196.316 162.926 203.107 168.305L203.761 168.835C203.87 168.947 203.976 169.064 204.093 169.176L204.414 169.514C210.016 174.024 217.043 176.505 224.067 176.505L224.612 176.5C230.241 176.404 235.743 174.826 240.53 171.767C250.075 165.789 255.893 155.301 255.893 143.801L255.878 142.754C255.809 140.334 255.502 138.061 255.017 135.794C255.017 135.674 254.91 135.565 254.91 135.336C254.142 132.185 252.82 129.246 250.96 126.207C249.422 118.87 247.663 113.572 243.165 107.031C242.727 106.352 242.066 105.675 241.407 105.113H241.63C242.836 105.113 244.042 104.883 245.248 104.433C255.239 100.264 258.752 90.6784 260.176 85.7183L260.505 85.4885C260.944 84.9256 263.687 81.088 265.116 78.0419L265.34 77.5914C265.661 76.9199 265.884 76.3525 266.107 75.7902C267.967 70.9422 269.29 65.753 269.943 60.4546C270.166 57.1766 269.729 53.9061 268.629 50.977C269.619 49.2873 270.058 47.2564 269.835 45.2283C269.62 42.742 269.29 40.8286 268.851 39.3601L268.755 39.0752C267.715 36.1438 265.415 33.5013 261.058 30.1114L260.411 29.6247C257.144 27.193 253.312 24.7835 249.198 22.6648C241.225 18.4047 229.024 13.4015 216.196 13.093L214.953 13.0779V14.1054C228.003 14.1055 240.572 19.2139 248.737 23.577L248.744 23.58L248.751 23.584C252.818 25.6784 256.603 28.0587 259.824 30.4566L260.461 30.9362C264.903 34.3934 267.003 36.9352 267.897 39.6712C268.306 41.0446 268.627 42.8776 268.839 45.3196L268.841 45.3437C269.039 47.1485 268.649 48.9525 267.772 50.4472L267.519 50.8777L267.695 51.3473C268.735 54.1179 269.157 57.2276 268.947 60.3602C268.303 65.559 267.003 70.6527 265.177 75.4129C264.956 75.9706 264.747 76.5008 264.448 77.1258L264.225 77.5764L264.216 77.5964C262.908 80.3842 260.426 83.9076 259.809 84.7319L259.318 85.0741L259.217 85.4273C257.81 90.3274 254.418 99.4855 244.897 103.471C243.795 103.882 242.707 104.085 241.63 104.085H238.639L240.767 105.903C241.389 106.433 241.969 107.037 242.332 107.599L242.34 107.611L242.349 107.625C246.745 114.018 248.463 119.175 249.982 126.424L250.019 126.601L250.113 126.754C251.915 129.698 253.18 132.514 253.919 135.505C253.939 135.715 253.993 135.875 254.03 135.976C254.031 135.978 254.032 135.981 254.033 135.984L254.04 136.015C254.582 138.543 254.893 141.068 254.893 143.801Z" fill="black"/>
<path d="M256.273 49.2847C251.993 46.5769 248.258 42.8563 246.282 39.8074C245.958 39.2476 246.611 38.5681 247.166 38.9065C250.678 41.0493 256.496 44.658 260.553 46.3556C260.776 46.465 261.1 46.2358 261.1 46.0145C260.991 44.3248 260.776 42.9682 260.447 42.1767C259.24 38.3467 235.308 21.764 214.018 22.2144C201.505 22.5529 187.779 15.674 177.795 13.1953C175.267 12.5158 170.984 11.7243 167.366 11.6149C151.448 11.6149 143.877 15.2236 136.191 17.1425C117.97 21.764 100.739 22.3316 62.2163 9.24559C61.5575 9.02428 60.6808 9.35754 60.4578 10.0345C54.308 25.7112 68.1431 48.9462 91.1916 43.9863C91.5235 43.8665 91.7389 44.3248 91.4069 44.5461C87.4566 47.8163 79.0111 48.8343 73.738 47.2539C72.7548 46.9154 71.6551 46.806 70.5554 46.9154C12.9293 69.8094 4.59018 129.813 10.517 144.699C14.1354 131.282 19.8468 124.065 25.0034 118.758C3.92883 161.164 15.7875 203.685 35.5419 220.939C32.4657 211.019 32.3593 200.644 34.4422 191.958C40.5894 230.526 62.5407 256.581 103.919 260.869C95.0355 256.81 88.7793 247.562 86.6888 241.354C104.251 260.978 158.036 266.956 173.513 249.361C167.034 249.022 159.027 245.643 154.522 242.932C142.118 235.155 131.696 220.489 131.144 200.185C130.812 187.669 135.976 173.461 148.265 162.065C122.911 167.033 84.7124 145.261 87.5731 103.311C90.3174 151.577 133.234 163.875 159.904 155.077C165.828 152.478 172.307 150.898 179.108 150.898C190.523 150.898 200.953 154.965 209.183 161.734C209.406 161.956 209.621 162.065 209.844 162.294C213.686 165.452 218.622 167.371 224.001 167.371C228.398 167.371 232.348 166.124 235.86 163.984C242.446 159.815 246.834 152.366 246.834 143.91C246.834 141.769 246.611 139.851 246.173 138.041V137.82C245.405 134.891 244.09 132.404 242.446 130.035C241.017 122.596 239.701 118.308 235.746 112.447C235.422 111.989 234.869 112.218 234.76 112.778C234.654 115.267 234.431 117.516 233.993 119.547C233.663 121.354 233.116 124.395 232.563 126.765C231.578 130.493 235.199 130.493 236.952 130.714C236.514 131.954 231.578 131.732 231.357 130.824V130.714C231.357 130.264 231.248 129.472 231.142 128.462C230.587 122.935 228.836 116.389 223.892 112.109C223.457 111.658 222.686 112.218 222.686 113.119C222.025 119.998 220.38 127.673 218.406 131.954V132.183C211.927 130.943 203.695 127.673 194.917 126.655C179.769 124.963 172.084 123.156 171.316 114.358C171.316 114.02 171.755 113.908 171.869 114.249C174.061 118.646 176.151 122.596 188.661 124.624C189.099 124.736 189.315 124.065 188.879 123.835C179.331 118.196 179.769 114.137 180.317 106.807C180.317 106.349 180.431 106.019 180.537 105.68C182.729 93.8334 191.952 85.8245 198.538 81.7654C198.87 81.5363 198.761 80.9765 198.315 80.9765C189.099 82.1065 180.101 86.275 173.622 96.5412C174.283 94.513 175.267 92.3649 176.587 90.3341C187.67 72.8583 208.745 76.467 223.892 79.1748C224.769 83.7963 224.554 90.4539 223.563 96.5412C223.457 97.3327 224.115 98.0097 224.769 97.7806C233.116 94.401 236.843 86.9545 238.711 81.2056C240.355 81.5363 243.538 81.9946 246.728 81.8774C246.834 81.8774 246.834 81.9945 246.728 81.9945C243.976 82.3278 241.455 82.445 241.125 82.3278C241.017 82.3278 240.91 82.5569 241.017 82.6663C241.787 85.7152 241.678 90.9043 241.017 95.4138C240.91 95.9736 241.348 96.4319 241.787 96.2028C250.017 92.7034 251.446 83.1167 252.214 80.6381C252.538 80.5261 252.761 80.297 252.984 80.1876C252.984 80.1876 253.091 80.1876 253.091 80.297C253.091 80.1876 253.2 80.1876 253.2 80.0756C253.638 79.508 255.728 76.467 256.712 74.4361C256.712 74.4361 256.712 74.319 256.818 74.319C256.818 74.2096 256.935 74.0976 256.935 73.9883C257.15 73.5379 257.264 73.1968 257.479 72.7464C259.24 68.3488 260.224 63.8314 260.776 59.551C261.43 55.2627 259.562 51.4249 256.273 49.2847ZM164.728 32.0302C163.745 29.4318 163.745 26.8411 165.283 24.8103C166.266 23.4616 164.183 21.8812 160.233 23.3418C161.216 22.5529 162.425 22.1025 163.745 21.8812C164.951 21.652 166.266 21.764 167.589 21.9905C170.11 22.4409 172.522 23.3418 174.499 24.9222C176.257 26.0522 178.011 27.5207 180.101 28.76C179.985 30.5618 179.44 32.3687 178.34 34.3996C173.952 32.9285 170.001 31.4678 164.728 32.0302ZM179.663 34.8474C181.199 33.8294 182.514 32.3687 183.497 30.4498C183.613 30.4498 183.829 30.5618 183.943 30.5618C184.711 30.7883 185.481 31.0096 186.358 31.2387C187.125 31.3507 188.002 31.4678 188.77 31.4678C189.538 31.4678 190.414 31.3507 191.291 31.3507C189.431 32.4807 185.035 36.3185 179.663 34.8474Z" fill="black"/>
</svg>
